<mxfile host="app.diagrams.net" modified="2022-01-03T14:44:44.035Z" agent="5.0 (Macintosh; Intel Mac OS X 10_15_7) AppleWebKit/537.36 (KHTML, like Gecko) Chrome/96.0.4664.110 Safari/537.36" etag="t1kIgjmFbqPjXPC3AKa7" version="16.1.2" type="github">
  <diagram id="kgpKYQtTHZ0yAKxKKP6v" name="Page-1">
    <mxGraphModel dx="933" dy="555" grid="1" gridSize="10" guides="1" tooltips="1" connect="1" arrows="1" fold="1" page="1" pageScale="1" pageWidth="850" pageHeight="1100" math="0" shadow="0">
      <root>
        <mxCell id="0" />
        <mxCell id="1" parent="0" />
        <mxCell id="3nuBFxr9cyL0pnOWT2aG-1" value="" style="shape=table;childLayout=tableLayout;startSize=0;collapsible=0;recursiveResize=0;expand=0;fillColor=none;fontStyle=1" parent="1" vertex="1">
          <mxGeometry x="40" y="50" width="616" height="332.0000000000002" as="geometry" />
        </mxCell>
        <mxCell id="3nuBFxr9cyL0pnOWT2aG-3" value="关系" style="shape=tableRow;horizontal=0;swimlaneHead=0;swimlaneBody=0;top=0;left=0;bottom=0;right=0;fillColor=none;points=[[0,0.5],[1,0.5]];portConstraint=eastwest;startSize=40;collapsible=0;recursiveResize=0;expand=0;fontStyle=1;" parent="3nuBFxr9cyL0pnOWT2aG-1" vertex="1">
          <mxGeometry width="616" height="170" as="geometry" />
        </mxCell>
        <mxCell id="3nuBFxr9cyL0pnOWT2aG-4" value="流程" style="swimlane;swimlaneHead=0;swimlaneBody=0;connectable=0;fillColor=none;startSize=40;collapsible=0;recursiveResize=0;expand=0;fontStyle=1;" parent="3nuBFxr9cyL0pnOWT2aG-3" vertex="1">
          <mxGeometry x="40" width="200" height="170" as="geometry">
            <mxRectangle width="200" height="170" as="alternateBounds" />
          </mxGeometry>
        </mxCell>
        <mxCell id="3nuBFxr9cyL0pnOWT2aG-7" value="流程节点" style="rounded=0;whiteSpace=wrap;html=1;" parent="3nuBFxr9cyL0pnOWT2aG-4" vertex="1">
          <mxGeometry x="52.5" y="80" width="90" height="40" as="geometry" />
        </mxCell>
        <mxCell id="yU4plqHVVjcT5TopJ7HQ-14" style="edgeStyle=none;rounded=0;orthogonalLoop=1;jettySize=auto;html=1;exitX=1;exitY=0.5;exitDx=0;exitDy=0;" edge="1" parent="3nuBFxr9cyL0pnOWT2aG-4">
          <mxGeometry relative="1" as="geometry">
            <mxPoint x="110" y="80" as="sourcePoint" />
            <mxPoint x="110" y="80" as="targetPoint" />
          </mxGeometry>
        </mxCell>
        <mxCell id="3nuBFxr9cyL0pnOWT2aG-8" value="表单" style="swimlane;swimlaneHead=0;swimlaneBody=0;connectable=0;fillColor=none;startSize=40;collapsible=0;recursiveResize=0;expand=0;fontStyle=1;" parent="3nuBFxr9cyL0pnOWT2aG-3" vertex="1">
          <mxGeometry x="240" width="356" height="170" as="geometry">
            <mxRectangle width="356" height="170" as="alternateBounds" />
          </mxGeometry>
        </mxCell>
        <mxCell id="3nuBFxr9cyL0pnOWT2aG-9" value="数据" style="rounded=0;whiteSpace=wrap;html=1;" parent="3nuBFxr9cyL0pnOWT2aG-8" vertex="1">
          <mxGeometry x="54.5" y="50" width="265.5" height="40" as="geometry" />
        </mxCell>
        <mxCell id="yU4plqHVVjcT5TopJ7HQ-4" value="UI配置项" style="rounded=0;whiteSpace=wrap;html=1;" vertex="1" parent="3nuBFxr9cyL0pnOWT2aG-8">
          <mxGeometry x="54.5" y="110" width="265.5" height="40" as="geometry" />
        </mxCell>
        <mxCell id="yU4plqHVVjcT5TopJ7HQ-13" value="" style="endArrow=none;html=1;rounded=0;entryX=0;entryY=0.75;entryDx=0;entryDy=0;exitX=0;exitY=0.5;exitDx=0;exitDy=0;" edge="1" parent="3nuBFxr9cyL0pnOWT2aG-8" source="yU4plqHVVjcT5TopJ7HQ-4" target="3nuBFxr9cyL0pnOWT2aG-9">
          <mxGeometry width="50" height="50" relative="1" as="geometry">
            <mxPoint x="110" y="110" as="sourcePoint" />
            <mxPoint x="160" y="60" as="targetPoint" />
            <Array as="points">
              <mxPoint x="30" y="100" />
            </Array>
          </mxGeometry>
        </mxCell>
        <mxCell id="3nuBFxr9cyL0pnOWT2aG-11" value="" style="swimlane;swimlaneHead=0;swimlaneBody=0;connectable=0;fillColor=none;startSize=40;collapsible=0;recursiveResize=0;expand=0;fontStyle=1;" parent="3nuBFxr9cyL0pnOWT2aG-3" vertex="1">
          <mxGeometry x="596" width="20" height="170" as="geometry">
            <mxRectangle width="20" height="170" as="alternateBounds" />
          </mxGeometry>
        </mxCell>
        <mxCell id="3nuBFxr9cyL0pnOWT2aG-2" value="表单id" style="edgeStyle=orthogonalEdgeStyle;rounded=0;orthogonalLoop=1;jettySize=auto;html=1;" parent="3nuBFxr9cyL0pnOWT2aG-3" source="3nuBFxr9cyL0pnOWT2aG-7" edge="1">
          <mxGeometry relative="1" as="geometry">
            <mxPoint x="265" y="100" as="targetPoint" />
          </mxGeometry>
        </mxCell>
        <mxCell id="3nuBFxr9cyL0pnOWT2aG-15" value="配置项" style="shape=tableRow;horizontal=0;swimlaneHead=0;swimlaneBody=0;top=0;left=0;bottom=0;right=0;fillColor=none;points=[[0,0.5],[1,0.5]];portConstraint=eastwest;startSize=40;collapsible=0;recursiveResize=0;expand=0;fontStyle=1;" parent="3nuBFxr9cyL0pnOWT2aG-1" vertex="1">
          <mxGeometry y="170" width="616" height="162" as="geometry" />
        </mxCell>
        <mxCell id="3nuBFxr9cyL0pnOWT2aG-16" value="" style="swimlane;swimlaneHead=0;swimlaneBody=0;connectable=0;fillColor=none;startSize=0;collapsible=0;recursiveResize=0;expand=0;fontStyle=1;" parent="3nuBFxr9cyL0pnOWT2aG-15" vertex="1">
          <mxGeometry x="40" width="200" height="162" as="geometry">
            <mxRectangle width="200" height="162" as="alternateBounds" />
          </mxGeometry>
        </mxCell>
        <mxCell id="yU4plqHVVjcT5TopJ7HQ-49" value="流程节点配置项" style="shape=table;startSize=28;container=1;collapsible=0;childLayout=tableLayout;fontStyle=1;align=center;" vertex="1" parent="3nuBFxr9cyL0pnOWT2aG-16">
          <mxGeometry x="12.5" y="12" width="170" height="128" as="geometry" />
        </mxCell>
        <mxCell id="yU4plqHVVjcT5TopJ7HQ-50" value="" style="shape=tableRow;horizontal=0;startSize=0;swimlaneHead=0;swimlaneBody=0;top=0;left=0;bottom=0;right=0;collapsible=0;dropTarget=0;fillColor=none;points=[[0,0.5],[1,0.5]];portConstraint=eastwest;" vertex="1" parent="yU4plqHVVjcT5TopJ7HQ-49">
          <mxGeometry y="28" width="170" height="33" as="geometry" />
        </mxCell>
        <mxCell id="yU4plqHVVjcT5TopJ7HQ-51" value="序号" style="shape=partialRectangle;html=1;whiteSpace=wrap;connectable=0;fillColor=none;top=0;left=0;bottom=0;right=0;overflow=hidden;" vertex="1" parent="yU4plqHVVjcT5TopJ7HQ-50">
          <mxGeometry width="56" height="33" as="geometry">
            <mxRectangle width="56" height="33" as="alternateBounds" />
          </mxGeometry>
        </mxCell>
        <mxCell id="yU4plqHVVjcT5TopJ7HQ-52" value="名称&lt;span style=&quot;white-space: pre&quot;&gt;	&lt;/span&gt;" style="shape=partialRectangle;html=1;whiteSpace=wrap;connectable=0;fillColor=none;top=0;left=0;bottom=0;right=0;overflow=hidden;" vertex="1" parent="yU4plqHVVjcT5TopJ7HQ-50">
          <mxGeometry x="56" width="58" height="33" as="geometry">
            <mxRectangle width="58" height="33" as="alternateBounds" />
          </mxGeometry>
        </mxCell>
        <mxCell id="yU4plqHVVjcT5TopJ7HQ-53" value="位置" style="shape=partialRectangle;html=1;whiteSpace=wrap;connectable=0;fillColor=none;top=0;left=0;bottom=0;right=0;overflow=hidden;" vertex="1" parent="yU4plqHVVjcT5TopJ7HQ-50">
          <mxGeometry x="114" width="56" height="33" as="geometry">
            <mxRectangle width="56" height="33" as="alternateBounds" />
          </mxGeometry>
        </mxCell>
        <mxCell id="yU4plqHVVjcT5TopJ7HQ-54" value="" style="shape=tableRow;horizontal=0;startSize=0;swimlaneHead=0;swimlaneBody=0;top=0;left=0;bottom=0;right=0;collapsible=0;dropTarget=0;fillColor=none;points=[[0,0.5],[1,0.5]];portConstraint=eastwest;" vertex="1" parent="yU4plqHVVjcT5TopJ7HQ-49">
          <mxGeometry y="61" width="170" height="34" as="geometry" />
        </mxCell>
        <mxCell id="yU4plqHVVjcT5TopJ7HQ-55" value="审核模式" style="shape=partialRectangle;html=1;whiteSpace=wrap;connectable=0;fillColor=none;top=0;left=0;bottom=0;right=0;overflow=hidden;" vertex="1" parent="yU4plqHVVjcT5TopJ7HQ-54">
          <mxGeometry width="56" height="34" as="geometry">
            <mxRectangle width="56" height="34" as="alternateBounds" />
          </mxGeometry>
        </mxCell>
        <mxCell id="yU4plqHVVjcT5TopJ7HQ-56" value="审核人" style="shape=partialRectangle;html=1;whiteSpace=wrap;connectable=0;fillColor=none;top=0;left=0;bottom=0;right=0;overflow=hidden;" vertex="1" parent="yU4plqHVVjcT5TopJ7HQ-54">
          <mxGeometry x="56" width="58" height="34" as="geometry">
            <mxRectangle width="58" height="34" as="alternateBounds" />
          </mxGeometry>
        </mxCell>
        <mxCell id="yU4plqHVVjcT5TopJ7HQ-57" value="显示同意" style="shape=partialRectangle;html=1;whiteSpace=wrap;connectable=0;fillColor=none;top=0;left=0;bottom=0;right=0;overflow=hidden;" vertex="1" parent="yU4plqHVVjcT5TopJ7HQ-54">
          <mxGeometry x="114" width="56" height="34" as="geometry">
            <mxRectangle width="56" height="34" as="alternateBounds" />
          </mxGeometry>
        </mxCell>
        <mxCell id="yU4plqHVVjcT5TopJ7HQ-58" value="" style="shape=tableRow;horizontal=0;startSize=0;swimlaneHead=0;swimlaneBody=0;top=0;left=0;bottom=0;right=0;collapsible=0;dropTarget=0;fillColor=none;points=[[0,0.5],[1,0.5]];portConstraint=eastwest;" vertex="1" parent="yU4plqHVVjcT5TopJ7HQ-49">
          <mxGeometry y="95" width="170" height="33" as="geometry" />
        </mxCell>
        <mxCell id="yU4plqHVVjcT5TopJ7HQ-59" value="显示退回" style="shape=partialRectangle;html=1;whiteSpace=wrap;connectable=0;fillColor=none;top=0;left=0;bottom=0;right=0;overflow=hidden;" vertex="1" parent="yU4plqHVVjcT5TopJ7HQ-58">
          <mxGeometry width="56" height="33" as="geometry">
            <mxRectangle width="56" height="33" as="alternateBounds" />
          </mxGeometry>
        </mxCell>
        <mxCell id="yU4plqHVVjcT5TopJ7HQ-60" value="..." style="shape=partialRectangle;html=1;whiteSpace=wrap;connectable=0;fillColor=none;top=0;left=0;bottom=0;right=0;overflow=hidden;" vertex="1" parent="yU4plqHVVjcT5TopJ7HQ-58">
          <mxGeometry x="56" width="58" height="33" as="geometry">
            <mxRectangle width="58" height="33" as="alternateBounds" />
          </mxGeometry>
        </mxCell>
        <mxCell id="yU4plqHVVjcT5TopJ7HQ-61" value="..." style="shape=partialRectangle;html=1;whiteSpace=wrap;connectable=0;fillColor=none;top=0;left=0;bottom=0;right=0;overflow=hidden;" vertex="1" parent="yU4plqHVVjcT5TopJ7HQ-58">
          <mxGeometry x="114" width="56" height="33" as="geometry">
            <mxRectangle width="56" height="33" as="alternateBounds" />
          </mxGeometry>
        </mxCell>
        <mxCell id="3nuBFxr9cyL0pnOWT2aG-18" value="" style="swimlane;swimlaneHead=0;swimlaneBody=0;connectable=0;fillColor=none;startSize=0;collapsible=0;recursiveResize=0;expand=0;fontStyle=1;" parent="3nuBFxr9cyL0pnOWT2aG-15" vertex="1">
          <mxGeometry x="240" width="356" height="162" as="geometry">
            <mxRectangle width="356" height="162" as="alternateBounds" />
          </mxGeometry>
        </mxCell>
        <mxCell id="yU4plqHVVjcT5TopJ7HQ-62" value="表单配置项" style="shape=table;startSize=28;container=1;collapsible=0;childLayout=tableLayout;fontStyle=1;align=center;" vertex="1" parent="3nuBFxr9cyL0pnOWT2aG-18">
          <mxGeometry x="20" y="30" width="150" height="95" as="geometry" />
        </mxCell>
        <mxCell id="yU4plqHVVjcT5TopJ7HQ-63" value="" style="shape=tableRow;horizontal=0;startSize=0;swimlaneHead=0;swimlaneBody=0;top=0;left=0;bottom=0;right=0;collapsible=0;dropTarget=0;fillColor=none;points=[[0,0.5],[1,0.5]];portConstraint=eastwest;" vertex="1" parent="yU4plqHVVjcT5TopJ7HQ-62">
          <mxGeometry y="28" width="150" height="33" as="geometry" />
        </mxCell>
        <mxCell id="yU4plqHVVjcT5TopJ7HQ-64" value="尺寸" style="shape=partialRectangle;html=1;whiteSpace=wrap;connectable=0;fillColor=none;top=0;left=0;bottom=0;right=0;overflow=hidden;" vertex="1" parent="yU4plqHVVjcT5TopJ7HQ-63">
          <mxGeometry width="49" height="33" as="geometry">
            <mxRectangle width="49" height="33" as="alternateBounds" />
          </mxGeometry>
        </mxCell>
        <mxCell id="yU4plqHVVjcT5TopJ7HQ-65" value="布局&lt;span style=&quot;white-space: pre&quot;&gt;	&lt;/span&gt;" style="shape=partialRectangle;html=1;whiteSpace=wrap;connectable=0;fillColor=none;top=0;left=0;bottom=0;right=0;overflow=hidden;" vertex="1" parent="yU4plqHVVjcT5TopJ7HQ-63">
          <mxGeometry x="49" width="52" height="33" as="geometry">
            <mxRectangle width="52" height="33" as="alternateBounds" />
          </mxGeometry>
        </mxCell>
        <mxCell id="yU4plqHVVjcT5TopJ7HQ-66" value="边框" style="shape=partialRectangle;html=1;whiteSpace=wrap;connectable=0;fillColor=none;top=0;left=0;bottom=0;right=0;overflow=hidden;" vertex="1" parent="yU4plqHVVjcT5TopJ7HQ-63">
          <mxGeometry x="101" width="49" height="33" as="geometry">
            <mxRectangle width="49" height="33" as="alternateBounds" />
          </mxGeometry>
        </mxCell>
        <mxCell id="yU4plqHVVjcT5TopJ7HQ-67" value="" style="shape=tableRow;horizontal=0;startSize=0;swimlaneHead=0;swimlaneBody=0;top=0;left=0;bottom=0;right=0;collapsible=0;dropTarget=0;fillColor=none;points=[[0,0.5],[1,0.5]];portConstraint=eastwest;" vertex="1" parent="yU4plqHVVjcT5TopJ7HQ-62">
          <mxGeometry y="61" width="150" height="34" as="geometry" />
        </mxCell>
        <mxCell id="yU4plqHVVjcT5TopJ7HQ-68" value="只读" style="shape=partialRectangle;html=1;whiteSpace=wrap;connectable=0;fillColor=none;top=0;left=0;bottom=0;right=0;overflow=hidden;" vertex="1" parent="yU4plqHVVjcT5TopJ7HQ-67">
          <mxGeometry width="49" height="34" as="geometry">
            <mxRectangle width="49" height="34" as="alternateBounds" />
          </mxGeometry>
        </mxCell>
        <mxCell id="yU4plqHVVjcT5TopJ7HQ-69" value="..." style="shape=partialRectangle;html=1;whiteSpace=wrap;connectable=0;fillColor=none;top=0;left=0;bottom=0;right=0;overflow=hidden;" vertex="1" parent="yU4plqHVVjcT5TopJ7HQ-67">
          <mxGeometry x="49" width="52" height="34" as="geometry">
            <mxRectangle width="52" height="34" as="alternateBounds" />
          </mxGeometry>
        </mxCell>
        <mxCell id="yU4plqHVVjcT5TopJ7HQ-70" value="..." style="shape=partialRectangle;html=1;whiteSpace=wrap;connectable=0;fillColor=none;top=0;left=0;bottom=0;right=0;overflow=hidden;" vertex="1" parent="yU4plqHVVjcT5TopJ7HQ-67">
          <mxGeometry x="101" width="49" height="34" as="geometry">
            <mxRectangle width="49" height="34" as="alternateBounds" />
          </mxGeometry>
        </mxCell>
        <mxCell id="yU4plqHVVjcT5TopJ7HQ-77" value="字段配置项" style="shape=table;startSize=28;container=1;collapsible=0;childLayout=tableLayout;fontStyle=1;align=center;" vertex="1" parent="3nuBFxr9cyL0pnOWT2aG-18">
          <mxGeometry x="185" y="30" width="160" height="94" as="geometry" />
        </mxCell>
        <mxCell id="yU4plqHVVjcT5TopJ7HQ-78" value="" style="shape=tableRow;horizontal=0;startSize=0;swimlaneHead=0;swimlaneBody=0;top=0;left=0;bottom=0;right=0;collapsible=0;dropTarget=0;fillColor=none;points=[[0,0.5],[1,0.5]];portConstraint=eastwest;" vertex="1" parent="yU4plqHVVjcT5TopJ7HQ-77">
          <mxGeometry y="28" width="160" height="33" as="geometry" />
        </mxCell>
        <mxCell id="yU4plqHVVjcT5TopJ7HQ-79" value="标识" style="shape=partialRectangle;html=1;whiteSpace=wrap;connectable=0;fillColor=none;top=0;left=0;bottom=0;right=0;overflow=hidden;" vertex="1" parent="yU4plqHVVjcT5TopJ7HQ-78">
          <mxGeometry width="50" height="33" as="geometry">
            <mxRectangle width="50" height="33" as="alternateBounds" />
          </mxGeometry>
        </mxCell>
        <mxCell id="yU4plqHVVjcT5TopJ7HQ-80" value="标题" style="shape=partialRectangle;html=1;whiteSpace=wrap;connectable=0;fillColor=none;top=0;left=0;bottom=0;right=0;overflow=hidden;" vertex="1" parent="yU4plqHVVjcT5TopJ7HQ-78">
          <mxGeometry x="50" width="57" height="33" as="geometry">
            <mxRectangle width="57" height="33" as="alternateBounds" />
          </mxGeometry>
        </mxCell>
        <mxCell id="yU4plqHVVjcT5TopJ7HQ-81" value="描述" style="shape=partialRectangle;html=1;whiteSpace=wrap;connectable=0;fillColor=none;top=0;left=0;bottom=0;right=0;overflow=hidden;" vertex="1" parent="yU4plqHVVjcT5TopJ7HQ-78">
          <mxGeometry x="107" width="53" height="33" as="geometry">
            <mxRectangle width="53" height="33" as="alternateBounds" />
          </mxGeometry>
        </mxCell>
        <mxCell id="yU4plqHVVjcT5TopJ7HQ-86" value="" style="shape=tableRow;horizontal=0;startSize=0;swimlaneHead=0;swimlaneBody=0;top=0;left=0;bottom=0;right=0;collapsible=0;dropTarget=0;fillColor=none;points=[[0,0.5],[1,0.5]];portConstraint=eastwest;" vertex="1" parent="yU4plqHVVjcT5TopJ7HQ-77">
          <mxGeometry y="61" width="160" height="33" as="geometry" />
        </mxCell>
        <mxCell id="yU4plqHVVjcT5TopJ7HQ-87" value="类型" style="shape=partialRectangle;html=1;whiteSpace=wrap;connectable=0;fillColor=none;top=0;left=0;bottom=0;right=0;overflow=hidden;" vertex="1" parent="yU4plqHVVjcT5TopJ7HQ-86">
          <mxGeometry width="50" height="33" as="geometry">
            <mxRectangle width="50" height="33" as="alternateBounds" />
          </mxGeometry>
        </mxCell>
        <mxCell id="yU4plqHVVjcT5TopJ7HQ-88" value="..." style="shape=partialRectangle;html=1;whiteSpace=wrap;connectable=0;fillColor=none;top=0;left=0;bottom=0;right=0;overflow=hidden;" vertex="1" parent="yU4plqHVVjcT5TopJ7HQ-86">
          <mxGeometry x="50" width="57" height="33" as="geometry">
            <mxRectangle width="57" height="33" as="alternateBounds" />
          </mxGeometry>
        </mxCell>
        <mxCell id="yU4plqHVVjcT5TopJ7HQ-89" value="..." style="shape=partialRectangle;html=1;whiteSpace=wrap;connectable=0;fillColor=none;top=0;left=0;bottom=0;right=0;overflow=hidden;" vertex="1" parent="yU4plqHVVjcT5TopJ7HQ-86">
          <mxGeometry x="107" width="53" height="33" as="geometry">
            <mxRectangle width="53" height="33" as="alternateBounds" />
          </mxGeometry>
        </mxCell>
        <mxCell id="3nuBFxr9cyL0pnOWT2aG-23" value="" style="swimlane;swimlaneHead=0;swimlaneBody=0;connectable=0;fillColor=none;startSize=0;collapsible=0;recursiveResize=0;expand=0;fontStyle=1;" parent="3nuBFxr9cyL0pnOWT2aG-15" vertex="1">
          <mxGeometry x="596" width="20" height="162" as="geometry">
            <mxRectangle width="20" height="162" as="alternateBounds" />
          </mxGeometry>
        </mxCell>
      </root>
    </mxGraphModel>
  </diagram>
</mxfile>
